<?xml version="1.0" encoding="utf-8"?>
<!-- Generator: Adobe Illustrator 22.1.0, SVG Export Plug-In . SVG Version: 6.00 Build 0)  -->
<svg version="1.1" id="Слой_1" xmlns="http://www.w3.org/2000/svg" xmlns:xlink="http://www.w3.org/1999/xlink" x="0px" y="0px"
	 viewBox="0 0 16 16" style="enable-background:new 0 0 16 16;" xml:space="preserve">
<style type="text/css">
	.st0{fill:#62ABFF;}
	.st1{fill:#FFFFFF;}
	.st2{font-family:'GillSans';}
	.st3{font-size:10.2218px;}
	.st4{fill:none;}
	.st5{font-family:'GillSans-SemiBold';}
	.st6{font-size:12px;}
</style>
<title>Logo</title>
<desc>Created with Sketch.</desc>
<g id="Page-1">
	<g id="_x31_-copy-2" transform="translate(-132.000000, -94.000000)">
		<g id="Group-11" transform="translate(132.000000, 92.000000)">
			<g id="Logo" transform="translate(0.000000, 2.000000)">
				<path id="Rectangle" class="st0" d="M2.9,0h10.3C14.7,0,16,1.3,16,2.9v10.2c0,1.6-1.3,2.9-2.9,2.9H2.9C1.3,15.9,0,14.6,0,13V2.9
					C0,1.3,1.3,0,2.9,0z"/>
				<g id="Group-10" transform="translate(0.000000, 0.571429)">
					<text transform="matrix(1.0062 0 0 1 4.5649 10.3603)" class="st1 st2 st3">V</text>
				</g>
			</g>
		</g>
	</g>
</g>
<rect x="3.3" y="3.1" class="st0" width="8.7" height="9.5"/>
<rect x="2.9" y="4.1" class="st4" width="10.2" height="10.8"/>
<text transform="matrix(1 0 0 1 3.9921 12.3181)" class="st1 st5 st6">V</text>
</svg>
